<?xml version="1.0" standalone="no"?>
<!DOCTYPE svg PUBLIC "-//W3C//DTD SVG 1.1//EN" "http://www.w3.org/Graphics/SVG/1.1/DTD/svg11.dtd" >
<!--
2013-9-30: Created.
-->
<svg>
<metadata>
Created by iconfont
</metadata>
<defs>

<font id="iconfont" horiz-adv-x="1024" >
  <font-face
    font-family="iconfont"
    font-weight="500"
    font-stretch="normal"
    units-per-em="1024"
    ascent="896"
    descent="-128"
  />
    <missing-glyph />
    
    <glyph glyph-name="x" unicode="x" horiz-adv-x="1001"
d="M281 543q-27 -1 -53 -1h-83q-18 0 -36.5 -6t-32.5 -18.5t-23 -32t-9 -45.5v-76h912v41q0 16 -0.5 30t-0.5 18q0 13 -5 29t-17 29.5t-31.5 22.5t-49.5 9h-133v-97h-438v97zM955 310v-52q0 -23 0.5 -52t0.5 -58t-10.5 -47.5t-26 -30t-33 -16t-31.5 -4.5q-14 -1 -29.5 -0.5
t-29.5 0.5h-32l-45 128h-439l-44 -128h-29h-34q-20 0 -45 1q-25 0 -41 9.5t-25.5 23t-13.5 29.5t-4 30v167h911zM163 247q-12 0 -21 -8.5t-9 -21.5t9 -21.5t21 -8.5q13 0 22 8.5t9 21.5t-9 21.5t-22 8.5zM316 123q-8 -26 -14 -48q-5 -19 -10.5 -37t-7.5 -25t-3 -15t1 -14.5
t9.5 -10.5t21.5 -4h37h67h81h80h64h36q23 0 34 12t2 38q-5 13 -9.5 30.5t-9.5 34.5q-5 19 -11 39h-368zM336 498v228q0 11 2.5 23t10 21.5t20.5 15.5t34 6h188q31 0 51.5 -14.5t20.5 -52.5v-227h-327z" />
    

    
    <glyph glyph-name="alert" unicode="&#58900;" d="M543.5440897137778 740.2691163780739l402.06835772681484-621.3783703703704a36.55166877392593 36.55166877392593 0 0 0-30.703401187555553-56.39922574222222h-804.1367154536297a36.55166877392593 36.55166877392593 0 0 0-30.703401187555553 56.39922574222222l402.06835651318517 621.3783703703704a36.55166877392593 36.55166877392593 0 0 0 61.40680358874074 0zM177.91774689659258 135.59485902696292h669.7727802785184l-334.8863907460741 517.5716304213333-334.88638953244447-517.5716304213333zM475.44833122607406 480.0577851543704a36.55166877392593 36.55166877392593 0 1 0 73.10333754785186 0v-132.0246276551111a36.55166877392593 36.55166877392593 0 1 0-73.10333754785186 0v132.0246276551111z m36.55166877392593-292.41335019140746a36.55166877392593 36.55166877392593 0 1 0 0 73.10333754785186 36.55166877392593 36.55166877392593 0 0 0 0-73.10333754785186z"  horiz-adv-x="1024" />

    
    <glyph glyph-name="area" unicode="&#58901;" d="M615.0958500933954 465.5118457187661L361.78531253462916 716.7014117733346h-118.94075550985481l315.15141373008066-308.28944539310874 57.099879338540255 57.099879338540255z m59.05450094878552-58.555448505247085l-56.68400322281876-56.68400322281876L844.7014117733346 127.98626354652185v109.83305393864164l-170.50947256724544 169.13707972835556z m-469.85757042561573-352.24761959074243l294.8566272473653 294.8982140304329L179.2985882266654 662.5126693873672V92.88626469833207a41.58767647166683 41.58767647166683 0 0 1 24.952605606831938-38.1359002924879z m114.1997600579213-3.410189396111276h485.6608876781669l-245.49205526030747 240.12724425395092L318.49254067448624 51.2985882266654z m522.7570949196694 640.3670429928611A41.58767647166683 41.58767647166683 0 0 1 803.1137353016679 716.7014117733346h-323.21942225030847l194.00651176905217-192.38459132755227 167.39039755681185 167.34881077374416zM844.7014117733346 577.4658711616053l-111.74608600413762-111.70449922106997L844.7014117733346 354.97180127872525v222.49406988288z m81.51184709960692 118.10900189757103c3.6597156178804937-8.733412238559342 4.200354844486585-18.464927983354734 1.6635072245675717-27.489454607591767V92.88626469833207a124.76302941500047 124.76302941500047 0 0 0-124.7630307958413-124.7630307958413H220.88626469833224a124.76302941500047 124.76302941500047 0 0 0-124.7630307958413 124.7630307958413V675.1137353016677a124.76302941500047 124.76302941500047 0 0 0 124.7630307958413 124.7630307958413h582.2274706033356a124.76302941500047 124.76302941500047 0 0 0 123.09952357127375-104.30189303833284z"  horiz-adv-x="1024" />

    
    <glyph glyph-name="check" unicode="&#58902;" d="M512 92.88626469833207c-209.85141580467095 0-457.46444256917596 184.64928397606977-457.46444256917596 291.1137353016678 0 106.46445132559799 247.61302676450498 291.1137353016678 457.46444256917596 291.1137353016678 210.59999446997858 0 457.46444256917596-183.19371480936297 457.46444256917596-291.1137353016678 0-107.92002049230483-246.8644480991974-291.1137353016678-457.46444256917596-291.1137353016678z m0 83.17535294333366c93.53068424255208 0 188.05947337218106 36.68033112578107 269.2802060861103 96.98246180257185C841.2080474302473 317.54289286847734 886.2890896258423 372.8545032524063 886.2890896258423 384c0 11.145496747593743-45.08104081475423 66.49869529543112-105.00888353973204 110.9559205557623C700.0594733721811 555.2580526133939 605.5722724064606 591.9383823583341 512 591.9383823583341c-93.32274618469135 0-187.72677220343567-36.92985734755029-269.1970297582933-97.73103908703868C183.16624190240663 449.8332915770996 137.71091037415778 394.1889814052662 137.71091037415778 384c0-10.147393241357694 45.45533014740807-65.79170479403193 105.09205986754895-110.20734327129547C324.31481596047286 212.94988682530766 418.67725381530863 176.06161764166575 512 176.06161764166575z m0 83.17535294333366a124.76302941500047 124.76302941500047 0 1 0 0 249.52605883000095 124.76302941500047 124.76302941500047 0 0 0 0-249.52605883000095z m0 83.17535294333366a41.58767647166683 41.58767647166683 0 1 1 0 83.17535294333366 41.58767647166683 41.58767647166683 0 0 1 0-83.17535294333366z"  horiz-adv-x="1024" />

    
    <glyph glyph-name="close" unicode="&#58903;" d="M590.5344890773553 376.83297062097336l285.52030974544596 285.5203114212753a50.47203639346588 50.47203639346588 0 0 1-71.36745969832853 71.36745802249916l-285.52030974544596-285.52030974544596-285.5203114212753 285.52030974544596a50.47203639346588 50.47203639346588 0 0 1-71.36745802249916-71.36745802249916l285.52030974544596-285.5203114212753L162.228787307291 91.26218824756597a50.47203639346588 50.47203639346588 0 1 1 71.36745969832853-71.36745969832853l285.52030974544596 285.5203114212753 285.5203114212753-285.5203114212753a50.47203639346588 50.47203639346588 0 1 1 71.36745969832853 71.36745969832853l-285.5203114212753 285.52030974544596z"  horiz-adv-x="1024" />

    
    <glyph glyph-name="account" unicode="&#58904;" d="M408.03080813041237 271.2973958918533c-121.39442818279767 0-225.48838178242892-78.43435749140016-260.33885440884933-187.9762970443641h520.6777101985394c-34.850472626420405 109.54193955296392-138.9444276068925 187.9762984252049-260.33885578969023 187.9762970443641z m0 83.17535432417446c179.8667017410686 0 331.03790592960786-132.53992493039146 353.1625495308431-307.4992813255743A41.58767647166683 41.58767647166683 0 0 0 719.9383823583341 0.14574590415554667H96.12323390249088a41.58767647166683 41.58767647166683 0 0 0-41.254973922080666 46.827722986297935c22.12464360123522 174.95935501434207 173.29584778977448 307.49927994473353 353.1625481500022 307.4992813255743z m2.412085889875226 0c85.67061378018501 0 154.91409475339591 68.20378930306633 154.91409475339591 152.08613274779918 0 83.84075528082437-69.24348097321086 152.08613274779918-154.91409475339591 152.08613274779918s-154.8725079703282-68.20378930306633-154.8725079703282-152.08613274779918c0-83.88234344473284 69.24348097321086-152.08613274779918 154.8725079703282-152.08613274779918z m0-83.17535432417446c-131.33388198545384 0-238.04786091366185 105.21682159759276-238.04786091366185 235.26148707197368 0 130.04466409354006 106.71397754736722 235.26148569113283 238.04786091366185 235.26148569113283 131.37547014936231 0 238.0894476967295-105.21682159759276 238.0894476967295-235.26148569113283 0-130.08625225744856-106.71397754736722-235.26148569113283-238.0894476967295-235.26148707197368zM761.526058830001 550.3507058866672a41.58767647166683 41.58767647166683 0 0 0 0 83.17535294333366h165.39419054433975a41.58767647166683 41.58767647166683 0 0 0 0-83.17535294333366H761.526058830001z m41.58767647166683-166.35070588666733a41.58767647166683 41.58767647166683 0 0 0 0 83.17535294333366h123.80651407267291a41.58767647166683 41.58767647166683 0 0 0 0-83.17535294333366H803.1137353016679z m41.58767647166683-166.35070588666733a41.58767647166683 41.58767647166683 0 0 0 0 83.17535294333366h82.21883760100609a41.58767647166683 41.58767647166683 0 0 0 0-83.17535294333366H844.7014117733345z"  horiz-adv-x="1024" />

    
    <glyph glyph-name="asset" unicode="&#58905;" d="M201.47868234488772 738.8815058915569a44.36018823644462 44.36018823644462 0 0 1-44.36018823644462-44.36018823644462v-621.0426353102247a44.36018823644462 44.36018823644462 0 0 1 44.36018823644462-44.36018823644462h621.0426353102247a44.36018823644462 44.36018823644462 0 0 1 44.36018823644462 44.36018823644462V694.5213176551123a44.36018823644462 44.36018823644462 0 0 1-44.36018823644462 44.36018823644462H201.47868234488772z m0 88.7203779457861h621.0426353102247a133.08056470933383 133.08056470933383 0 0 0 133.0805661822307-133.0805661822307v-621.0426353102247a133.08056470933383 133.08056470933383 0 0 0-133.0805661822307-133.0805661822307H201.47868234488772a133.08056470933383 133.08056470933383 0 0 0-133.0805661822307 133.0805661822307V694.5213176551123a133.08056470933383 133.08056470933383 0 0 0 133.0805661822307 133.0805661822307z m88.72037647288924-310.5213191280092a44.36018823644462 44.36018823644462 0 0 0 44.36018823644462-44.36018823644462v-177.44075294577848a44.36018823644462 44.36018823644462 0 0 0-88.72037647288924 0v177.44075294577848a44.36018823644462 44.36018823644462 0 0 0 44.36018823644462 44.36018823644462z m310.52131765511234-1.7744077062054098a133.08056470933383 133.08056470933383 0 1 0 0-266.16112941866766 133.08056470933383 133.08056470933383 0 0 0 0 266.16112941866766z m0-88.72037647288924a44.36018823644462 44.36018823644462 0 1 1 0-88.72037647288924 44.36018823644462 44.36018823644462 0 0 1 0 88.72037647288924z m0 134.721891763929a44.36018823644462 44.36018823644462 0 1 0 0-88.72037647288924 44.36018823644462 44.36018823644462 0 0 0 0 88.72037647288924z m0-265.9393288236163a44.36018823644462 44.36018823644462 0 1 0 0-88.72037647288924 44.36018823644462 44.36018823644462 0 0 0 0 88.72037647288924z m177.61819430555775 88.45421516966874a44.36018823644462 44.36018823644462 0 1 0-88.72037647288924 0 44.36018823644462 44.36018823644462 0 0 0 88.72037647288924 0z m-266.33857077844704 0a44.36018823644462 44.36018823644462 0 1 0-88.72037647288924 0 44.36018823644462 44.36018823644462 0 0 0 88.72037647288924 0z"  horiz-adv-x="1024" />

    
    <glyph glyph-name="back" unicode="&#58906;" d="M360.2305857755325 384l383.08275667888006 383.08275667888006a41.68990135380284 41.68990135380284 0 1 1-58.90086638905904 58.95133901702024l-412.5584261873901-412.5584261873901a41.538486821577834 41.538486821577834 0 0 1 0-58.95133901702024l412.5584261873901-412.5584261873901a41.68990135380284 41.68990135380284 0 0 1 58.95133901702024 58.95133901702024L360.2810584034937 384z"  horiz-adv-x="1024" />

    
    <glyph glyph-name="delete" unicode="&#58907;" d="M275.4123294056288 646.8489018968039v-573.1099740899093a47.31753411887426 47.31753411887426 0 0 1 47.31753411887426-47.31753411887426h375.228046018289a47.31753411887426 47.31753411887426 0 0 1 47.31753411887426 47.31753411887426V646.8489018968039H275.4123294056288z m564.498182493786 0v-573.1099740899093a141.95260235662275 141.95260235662275 0 0 0-141.95260235662275-141.95260235662275H322.729863524503a141.95260235662275 141.95260235662275 0 0 0-141.95260235662275 141.95260235662275V646.8489018968039H133.45972704900595a47.31753411887426 47.31753411887426 0 0 0 0 94.63506980883851h757.0805459019882a47.31753411887426 47.31753411887426 0 0 0 0-94.63506980883851h-50.629761051579344z m-469.8631142560375-141.95260235662275a47.31753411887426 47.31753411887426 0 1 0 94.63506823774853 0v-337.46865427218086a47.31753411887426 47.31753411887426 0 0 0-94.63506823774853 0v337.46865427218086z m189.27013647549705 0a47.31753411887426 47.31753411887426 0 1 0 94.63506823774853 0v-337.46865427218086a47.31753411887426 47.31753411887426 0 0 0-94.63506823774853 0v337.46865427218086z m-141.95260235662275 331.22274040320985h189.27013647549705a47.31753411887426 47.31753411887426 0 0 0 0-94.63506823774853h-189.27013647549705a47.31753411887426 47.31753411887426 0 0 0 0 94.63506823774853z"  horiz-adv-x="1024" />

    
    <glyph glyph-name="data" unicode="&#58908;" d="M512 384h310.52131765511234a44.36018823644462 44.36018823644462 0 0 0 44.36018823644462-44.36018823644462 399.2416956008984 399.2416956008984 0 1 0-399.2416941280015 399.2416941280015 44.36018823644462 44.36018823644462 0 0 0 44.36018823644462-44.36018823644462v-310.52131765511234z m-88.72037647288924 263.0559166692567A310.61003907145044 310.61003907145044 0 0 1 467.6398117635554 29.118494108443087a310.61003907145044 310.61003907145044 0 0 1 307.4161049057013 266.16112941866766H467.6398117635554a44.36018823644462 44.36018823644462 0 0 0-44.36018823644462 44.36018823644462v307.4161049057013zM866.5709853530644 472.7203764728892H645.0805647093339a44.36018823644462 44.36018823644462 0 0 0-44.36018823644462 44.36018823644462V738.8815058915569a44.36018823644462 44.36018823644462 0 0 0 44.36018823644462 44.3601897093415c158.3658723134156 0 258.9304194151327-108.68246095835477 265.806248172006-264.2092818255799a44.36018823644462 44.36018823644462 0 0 0-44.36018823644462-46.312037302429324zM689.4407529457784 690.2183805141058V561.4407529457785h126.78141926707056c-15.614786636290106 68.8470119308649-59.575732917903984 115.02596858168395-126.78141926707056 128.77762756832743z"  horiz-adv-x="1024" />

    
    <glyph glyph-name="code" unicode="&#58909;" d="M248.9440833307433 552.2581938762588c1.7300469980363675 79.58217811153855 13.574217626864197 122.92208184327023 42.05345792379821 167.19355013627364a266.16112941866766 266.16112941866766 0 0 0 468.08870753176336-37.88360143440206 44.36018823644462 44.36018823644462 0 0 0-81.35658581774398-35.39942976197635 177.44075294577848 177.44075294577848 0 0 1-312.11828400153837 25.240946895912728c-18.764360093870174-29.144643554985254-26.616112647287398-56.8697621233237-27.94691916338989-119.15146583580797H778.1611294186678a133.08056470933383 133.08056470933383 0 0 0 133.0805661822307-133.08056470933383v-354.88150589155697a133.08056470933383 133.08056470933383 0 0 0-133.0805661822307-133.0805661822307H245.83887058133234a133.08056470933383 133.08056470933383 0 0 0-133.0805661822307 133.0805661822307v354.88150589155697a133.08056470933383 133.08056470933383 0 0 0 133.0805661822307 133.08056470933383h3.1052127494110286z m-3.1052127494110286-88.72037647288924a44.36018823644462 44.36018823644462 0 0 1-44.36018823644462-44.36018823644462v-354.88150589155697a44.36018823644462 44.36018823644462 0 0 1 44.36018823644462-44.36018823644462h532.3222588373353a44.36018823644462 44.36018823644462 0 0 1 44.36018823644462 44.36018823644462v354.88150589155697a44.36018823644462 44.36018823644462 0 0 1-44.36018823644462 44.36018823644462H245.83887058133234z"  horiz-adv-x="1024" />

    
    <glyph glyph-name="control_board" unicode="&#58910;" d="M157.1184941084431 783.2416956008983h709.7630117831139a88.72037647288924 88.72037647288924 0 0 0 88.7203779457861-88.7203779457861v-487.9620706008908a88.72037647288924 88.72037647288924 0 0 0-88.7203779457861-88.72037647288924H157.1184941084431a88.72037647288924 88.72037647288924 0 0 0-88.7203779457861 88.72037647288924V694.5213176551123a88.72037647288924 88.72037647288924 0 0 0 88.7203779457861 88.7203779457861z m44.27146682010653-87.83317409268344a44.36018823644462 44.36018823644462 0 0 1-44.36018823644462-44.36018823644462v-402.613068180633a44.36018823644462 44.36018823644462 0 0 1 44.36018823644462-44.36018823644462h625.2124947454145a44.36018823644462 44.36018823644462 0 0 1 44.36018823644462 44.36018823644462V651.0483332717704a44.36018823644462 44.36018823644462 0 0 1-44.36018823644462 44.36018823644462H201.38996092854967zM470.65630456952533 117.83887058133223h84.77231910564767v-88.89781783266854h-84.8166798138167V117.83887058133223z m-219.8934542973043-88.89781783266854H773.2815089630511a43.739145686562416 43.739145686562416 0 0 0 0-87.52265208129387H250.71849103694865a43.739145686562416 43.739145686562416 0 1 0 0 87.52265208129387z m43.11810313668021 504.6858631582319c23.510899897876364 0 42.585780530239205-19.030521397090673 42.58578200313609-42.54142129496703V339.6398117635555a42.54142129496703 42.54142129496703 0 0 0-85.08284111703719 0v151.49004355654233c0 23.510899897876364 19.030521397090673 42.585780530239205 42.49705911390111 42.585780530239205z m222.15582390178167 58.11184575019121c23.422179954435155 0 42.408340643356794-18.986160688921633 42.408339170459925-42.408339170459925v-210.932695822836a42.408340643356794 42.408340643356794 0 1 0-84.77231910564767 0v210.932695822836c0 23.422179954435155 18.986160688921633 42.408340643356794 42.36397993518776 42.408339170459925z m222.42198373210528-117.2439774779923c23.59961984131757 0 42.7632218900185-19.163602048700927 42.7632218900185-42.7632218900185v-91.91430916574149a42.7632218900185 42.7632218900185 0 0 0-85.526443780037 0v91.91430916574149c0 23.59961984131757 19.11924134053188 42.7632218900185 42.7632218900185 42.7632218900185z"  horiz-adv-x="1024" />

    
    <glyph glyph-name="edit" unicode="&#58911;" d="M681.2784783809716 692.8799906005172l-383.67126819988056-383.62690749171134a44.36018823644462 44.36018823644462 0 0 1-12.731374481930533-26.970995366845983l-8.87203705813017-88.7647357081614 88.7647357081614 8.87203705813017a44.36018823644462 44.36018823644462 0 0 1 26.970995366845983 12.731374481930533l383.6269089646083 383.71562890804955a44.36018823644462 44.36018823644462 0 0 1 0 62.680945667315l-31.362653924190464 31.362652451293577a44.36018823644462 44.36018823644462 0 0 1-62.72530637548406 0z m156.85762591043073 31.407014632359505a133.08056470933383 133.08056470933383 0 0 0 0-188.22027983462118l-383.67126819988056-383.67126819988056a133.08056470933383 133.08056470933383 0 0 0-80.868623919472-38.32720262450497l-88.80909641633045-8.87203853102705a88.72037647288924 88.72037647288924 0 0 0-97.0600923974753 97.14881234091649l8.87203705813017 88.72037647288924a133.08056470933383 133.08056470933383 0 0 0 38.28284338923281 80.91298462764105l383.67126819988056 383.67126819988056a133.08056470933383 133.08056470933383 0 0 0 188.22027983462118 0l31.362652451293577-31.362652451293577zM157.1184941084431 29.118494108443087h709.7630117831139a44.36018823644462 44.36018823644462 0 0 0 0-88.7203779457861H157.1184941084431a44.36018823644462 44.36018823644462 0 0 0 0 88.7203779457861z"  horiz-adv-x="1024" />

    
    <glyph glyph-name="logout" unicode="&#58912;" d="M183.55716539595113 682.1448258927403a44.36018823644462 44.36018823644462 0 0 0 65.65307923801267-59.620093626073015A353.373259488572 353.373259488572 0 0 1 157.1184941084431 384a354.88150589155697 354.88150589155697 0 1 1 709.7630117831139 0 353.32890025329993 353.32890025329993 0 0 1-90.31734281931537 236.52852396541053 44.36018823644462 44.36018823644462 0 0 0 66.09668042811558 59.17649096307323A442.04927672618896 442.04927672618896 0 0 0 955.6018838373429 384c0-245.00132054160676-198.60056329573626-443.60188383734305-443.60188383734305-443.60188383734305S68.39811616265695 138.99867945839287 68.39811616265695 384c0 111.74331447249365 41.52113679025409 217.09876208638596 115.1590492332942 298.14482589274036z m279.8684276971421 115.1590492332942a44.36018823644462 44.36018823644462 0 1 0 88.7203779457861 1.1533636834263266L556.3601882364445 473.38577973094044a44.36018823644462 44.36018823644462 0 0 0-88.72037647288924-1.1533651563232041l-4.214218670462069 325.0714605514174z"  horiz-adv-x="1024" />

    
    <glyph glyph-name="message" unicode="&#58913;" d="M229.46996074354962 650.1611294186677L512 367.63109016221756 794.5300392564502 650.1611294186677H229.46996074354962zM866.8815058915568 597.0619847757032l-292.1561995160729-292.1562009889698a88.72037647288924 88.72037647288924 0 0 0-125.45061275096812 0L157.1184941084431 597.0619847757032V162.19905881777686a44.36018823644462 44.36018823644462 0 0 1 44.36018823644462-44.36018823644462h621.0426353102247a44.36018823644462 44.36018823644462 0 0 1 44.36018823644462 44.36018823644462v434.8629259579263zM201.47868234488772 738.8815058915569h621.0426353102247a133.08056470933383 133.08056470933383 0 0 0 133.0805661822307-133.08056470933383v-443.60188236444617a133.08056470933383 133.08056470933383 0 0 0-133.0805661822307-133.08056470933383H201.47868234488772a133.08056470933383 133.08056470933383 0 0 0-133.0805661822307 133.08056470933383V605.800941182223a133.08056470933383 133.08056470933383 0 0 0 133.0805661822307 133.08056470933383z"  horiz-adv-x="1024" />

    
    <glyph glyph-name="map" unicode="&#58914;" d="M727.3243543801805 650.0280487670574l-23.333460010993946-301.6936398322543 130.90691652119457 33.00397950588875a88.72037647288924 88.72037647288924 0 0 0 1.1090044481541619 3.948057367241569l64.76587538490996 214.08226780751923-173.44833634326477 50.659335151604765z m-88.72037647288924 3.1939341657491127l-292.02312033735956-58.73288977297032 17.744075589157223-258.0875747973022h249.747860345613l24.531184402589318 316.8204645702724z m108.37193894696523-524.7810282953077l150.46975905182936-42.45269987862895-51.32473693675913 206.67411791710182-136.62938012174467-34.46786667360149 37.48435800667444-129.7091906567023z m-92.62407313196175 0.9315645612717475l-34.15734466221195 118.30862269087429h-261.14842831144097l-10.557724820894373-158.3658723134156 305.8634977945474 40.05724962254135zM155.87640753578177 394.20284357423265l118.35298339904332-40.589572228982334-16.590710432834015 240.65402121953448-124.91829014452712 36.64151633463765 23.156017178317786-236.7059653251898z m-6.964548700314512-91.4263487403664l-24.70862576236861-177.08587169911675 135.56473638175956-33.58066282049878 11.267487314217787 168.79051648269976-122.1235979336087 41.876018036915795zM44.39925436650867 622.2142117281746a88.72037647288924 88.72037647288924 0 0 0 113.2959215836476 93.77743828828496l139.51279227610425-40.94445494854092L667.2606595640046 749.5279521287894a88.72037647288924 88.72037647288924 0 0 0 42.36397993518776-1.8187684143744525l216.03411687350393-63.12454833031479a88.89781783266854 88.89781783266854 0 0 0 60.06369481617594-110.85611061939095l-64.76587538490996-214.08226780751923 62.636586432042826-252.2320305451418a88.72037647288924 88.72037647288924 0 0 0-110.23506806950874-106.73061336526695l-164.5319385769655 46.40075724587053-399.4634961959499-52.34502291436896a88.72037647288924 88.72037647288924 0 0 0-32.870898854278494 1.8187684143744525l-173.581416994875 43.02938172034213a88.72037647288924 88.72037647288924 0 0 0-66.54028309111536 98.39089744068089l32.60473902395487 233.60075257577873-24.531184402589318 250.67942343398786z m466.0481385223374-160.22899996306222a44.36018823644462 44.36018823644462 0 1 0 0 88.72037647288924 44.36018823644462 44.36018823644462 0 0 0 0-88.72037647288924z"  horiz-adv-x="1024" />

    
    <glyph glyph-name="dispose" unicode="&#58915;" d="M865.3042547542611 636.3601819673293V787.776291147727a50.47203639346588 50.47203639346588 0 0 1-100.94407278693176 0v-151.4161091803976h-50.47203639346588a50.47203639346588 50.47203639346588 0 0 1 0-100.94407278693176h50.47203639346588v-555.1924003281246a50.47203639346588 50.47203639346588 0 0 1 100.94407278693176 0V535.4161091803977h50.47203639346588a50.47203639346588 50.47203639346588 0 0 1 0 100.94407278693176h-50.47203639346588z m-302.8322183607952-201.8881455738635V787.776291147727a50.47203639346588 50.47203639346588 0 0 1-100.94407278693176 0v-353.30425475426114h-50.47203639346588a50.47203639346588 50.47203639346588 0 0 1 0-100.94407278693176h50.47203639346588v-353.30425475426114a50.47203639346588 50.47203639346588 0 0 1 100.94407278693176 0v353.30425475426114h50.47203639346588a50.47203639346588 50.47203639346588 0 0 1 0 100.94407278693176h-50.47203639346588z m-302.8322183607952-151.4161091803976V787.776291147727a50.47203639346588 50.47203639346588 0 0 1-100.94407278693176 0v-504.72036393465874H108.22370885227303a50.47203639346588 50.47203639346588 0 0 1 0-100.94407278693176h50.47203639346588v-201.8881455738635a50.47203639346588 50.47203639346588 0 0 1 100.94407278693176 0v201.8881455738635h50.47203639346588a50.47203639346588 50.47203639346588 0 0 1 0 100.94407278693176h-50.47203639346588z"  horiz-adv-x="1024" />

    
    <glyph glyph-name="next" unicode="&#58916;" d="M654.9368065568434 384l-383.08275667888006 383.08275667888006a41.68990135380284 41.68990135380284 0 1 0 58.95133901702024 58.95133901702024l412.5584261873901-412.5584261873901a41.538486821577834 41.538486821577834 0 0 0 0-58.95133901702024l-412.5584261873901-412.5584261873901a41.68990135380284 41.68990135380284 0 0 0-58.95133901702024 58.95133901702024l383.08275667888006 383.08275667888006z"  horiz-adv-x="1024" />

    
    <glyph glyph-name="journal" unicode="&#58917;" d="M774.3905134112056 738.8815058915569v-381.5863399551824c0-39.48056778082818-47.77592299724519-59.30957161468348-75.72284068773821-31.362652451293577l-74.74691689119429 74.74691689119429-75.14616031892191-75.14615884602503c-27.94691916338989-27.94691916338989-75.72284216063508-8.16227456480676-75.72284068773821 31.362653924190468V738.8815058915569H290.199058817777a44.36018823644462 44.36018823644462 0 0 1-44.36018823644462-44.36018823644462v-621.0426353102247a44.36018823644462 44.36018823644462 0 0 1 44.36018823644462-44.36018823644462h44.36018823644462V738.8815058915569h88.72037647288924v-709.7630117831139h354.88150589155697a44.36018823644462 44.36018823644462 0 0 1 44.36018823644462 44.36018823644462V694.5213176551123a44.36018823644462 44.36018823644462 0 0 1-44.36018823644462 44.36018823644462h-3.7706160074622757zM290.199058817777 827.601883837343h487.9620706008908a133.08056470933383 133.08056470933383 0 0 0 133.0805661822307-133.0805661822307v-621.0426353102247a133.08056470933383 133.08056470933383 0 0 0-133.0805661822307-133.0805661822307H290.199058817777a133.08056470933383 133.08056470933383 0 0 0-133.08056470933383 133.0805661822307V694.5213176551123a133.08056470933383 133.08056470933383 0 0 0 133.08056470933383 133.0805661822307z m271.5730724807251-363.6204637709737l30.78597060958042 30.78597060958042a44.36018823644462 44.36018823644462 0 0 0 62.72530637548406 0l30.386728654749668-30.386730127646548V736.4416964001973h-123.89800563981414v-272.46027633382784z"  horiz-adv-x="1024" />

    
    <glyph glyph-name="more" unicode="&#58918;" d="M180.77726116788023 336.68246588112584a47.31753411887426 47.31753411887426 0 1 1 0 94.63506823774853 47.31753411887426 47.31753411887426 0 0 1 0-94.63506823774853z m0-94.63506823774853a141.95260235662275 141.95260235662275 0 1 0 0 283.9052047132455 141.95260235662275 141.95260235662275 0 0 0 0-283.9052047132455z m331.22273883211983 94.63506823774853a47.31753411887426 47.31753411887426 0 1 1 0 94.63506823774853 47.31753411887426 47.31753411887426 0 0 1 0-94.63506823774853z m0-94.63506823774853a141.95260235662275 141.95260235662275 0 1 0 0 283.9052047132455 141.95260235662275 141.95260235662275 0 0 0 0-283.9052047132455z m331.22273883211983 94.63506823774853a47.31753411887426 47.31753411887426 0 1 1 0 94.63506823774853 47.31753411887426 47.31753411887426 0 0 1 0-94.63506823774853z m0-94.63506823774853a141.95260235662275 141.95260235662275 0 1 0 0 283.9052047132455 141.95260235662275 141.95260235662275 0 0 0 0-283.9052047132455z"  horiz-adv-x="1024" />

    
    <glyph glyph-name="monitor" unicode="&#58919;" d="M389.92076130166345 68.64342112454324l-35.53251041358661-61.57194121916084h312.20700541787653l-36.50843568302739 63.21326827375599a398.97553429767794 398.97553429767794 0 0 0-122.70027977532189-19.20796128397309c-40.900094240371885 0-80.29194060486198 6.166066263549893-117.46577954594063 17.566634229377932z m-81.84454771601594 35.66559106519686a399.2416956008984 399.2416956008984 0 1 0 403.23411220341217 2.7059722674771582l57.002842774933946-98.70141945207044 0.6654017851543703-1.2420850997644117h109.12606362135459a44.36018823644462 44.36018823644462 0 1 0 0-88.72037647288924h-709.7630132560109a44.36018823644462 44.36018823644462 0 1 0 0 88.72037647288924h83.61895542222133l0.6654032580512482 1.2420850997644117 55.45023419088311 95.99544718459329z m199.31032726195656 35.488151178314446a310.52131765511234 310.52131765511234 0 1 1 0 621.0426367831217 310.52131765511234 310.52131765511234 0 0 1 0-621.0426367831217z m0 44.36018823644462a177.44075294577848 177.44075294577848 0 1 0 0 354.88150589155697 177.44075294577848 177.44075294577848 0 0 0 0-354.88150589155697z m0 88.72037647288924a88.72037647288924 88.72037647288924 0 1 1 0 177.44075294577848 88.72037647288924 88.72037647288924 0 0 1 0-177.44075294577848z m0 309.8115551617889c24.486823694420277 0 44.36018823644462 20.13952584524484 44.36018823644462 45.02559149449587 0 24.841704941081982-19.873364542024337 45.02559149449587-44.36018823644462 45.02559149449587s-44.36018823644462-20.183885080516998-44.36018823644462-45.02559149449587c0-24.841704941081982 19.873364542024337-45.02559149449587 44.36018823644462-45.02559149449587z"  horiz-adv-x="1024" />

    
    <glyph glyph-name="notice_contact" unicode="&#58920;" d="M624.5362528333537 410.3665866096302a206.31646329767503 206.31646329767503 0 0 0 95.06942835623505-148.5511802408033A41.58767647166683 41.58767647166683 0 0 0 678.3507058866672 215.02927016559647h-332.70141177333466a41.58767647166683 41.58767647166683 0 0 0-41.25497530292148 46.786136203230285 206.35805146158353 206.35805146158353 0 0 0 96.77452374471112 149.5908719109478 143.35272050923982 143.35272050923982 0 0 0-34.22665845283818 93.11480812683061c0 80.13945287987622 65.66694168314731 144.84987783985514 146.3886219535381 144.84987783985514 80.6800921064823 0 146.34703378962962-64.71042495997892 146.34703378962962-144.84987783985514 0-36.01492740744955-13.266468251791274-68.86919302139786-35.1415870120981-94.15449979697513zM157.38188268329094-54.542048925350514c-34.39300834679045-13.391231362675882-67.87108813432098 21.376066316768394-53.23222704363984 55.31160900308805L159.75237902841673 129.06754338057488C92.38034333763426 206.17109481615284 54.53555743082404 303.3614946765854 54.53555743082404 406.24940671211976 54.53555743082404 646.7093521348161 259.853917222263 840.6326889568921 512 840.6326889568921s457.46444256917596-193.92333544123522 457.46444256917596-434.3832822447722c0-240.41835863962862-205.31835979143898-434.3416940808638-457.46444256917596-434.3416940808638-65.70852846621497 0-129.50402486693397 13.183293304815145-188.05947337218106 38.26066340337251l-166.55864394452803-64.71042495997892z m152.66836013831374 148.5927684047118a41.58767647166683 41.58767647166683 0 0 0 32.93743918008362-1.2476311088460905 392.50449138742783 392.50449138742783 0 0 1 169.01231799831172-37.7200227959256c207.23139185693492 0 374.2890896258423 157.78364492290103 374.2890896258423 351.1663411375302S719.231391856935 757.4573360135585 512 757.4573360135585s-374.2890896258423-157.78364492290103-374.2890896258423-351.20792930143864c0-90.03731989946468 36.222866846151106-174.75141695648136 100.47582752650008-239.3786655886433a41.58767647166683 41.58767647166683 0 0 0 8.650235910742389-45.82961948006188l-26.82405088926025-61.96563790135835 90.03731989946468 34.93364757339654zM512 359.62962178368264c-46.245496976624196 0-87.04300661907489-24.53672949111045-108.95971216244938-61.42499867475226h217.91942432489876A126.63447469742879 126.63447469742879 0 0 1 512 359.62962178368264z m1.289217891913745 83.17535294333366c35.05841068428115 0 63.21326901020443 27.780567612428637 63.21326901020443 61.71611167958913s-28.15485694508247 61.674524896521476-63.21326901020443 61.674524896521476c-35.01682390121349 0-63.21326901020443-27.738980829360983-63.213267629363614-61.674524896521476 0-33.93554406716049 28.19644510899095-61.71611167958913 63.213267629363614-61.71611167958913z"  horiz-adv-x="1024" />

    
    <glyph glyph-name="scheduling_Jobs" unicode="&#58921;" d="M180.77726116788023 762.540272950994a47.31753411887426 47.31753411887426 0 0 1-47.31753411887426-47.31753411887426v-662.4454776642397a47.31753411887426 47.31753411887426 0 0 1 47.31753411887426-47.31753411887426h662.4454776642397a47.31753411887426 47.31753411887426 0 0 1 47.31753411887426 47.31753411887426V715.2227388321198a47.31753411887426 47.31753411887426 0 0 1-47.31753411887426 47.31753411887426H180.77726116788023z m0 94.63506980883851h662.4454776642397a141.95260235662275 141.95260235662275 0 0 0 141.95260392771274-141.95260392771274v-662.4454776642397a141.95260235662275 141.95260235662275 0 0 0-141.95260392771274-141.95260392771274H180.77726116788023a141.95260235662275 141.95260235662275 0 0 0-141.95260392771274 141.95260392771274V715.2227388321198a141.95260235662275 141.95260235662275 0 0 0 141.95260392771274 141.95260392771274z m453.86978723053574-789.9189161232971a141.95260235662275 141.95260235662275 0 1 1 0 283.9052047132455 141.95260235662275 141.95260235662275 0 0 1 0-283.9052047132455z m-141.95260235662275 189.27013647549705h-189.27013647549705a47.31753411887426 47.31753411887426 0 1 1 0-94.63506823774853h189.27013647549705a47.31753411887426 47.31753411887426 0 1 1 0 94.63506823774853z m141.95260235662275-94.63506823774853a47.31753411887426 47.31753411887426 0 1 0 0 94.63506823774853 47.31753411887426 47.31753411887426 0 0 0 0-94.63506823774853z m-94.63506823774853 438.9174471591041h189.27013647549705a47.31753411887426 47.31753411887426 0 1 0 0-94.63506823774853h-189.27013647549705a47.31753411887426 47.31753411887426 0 1 0 0 94.63506823774853z m-141.95260235662275-189.27013647549705a141.95260235662275 141.95260235662275 0 1 0 0 283.9052047132455 141.95260235662275 141.95260235662275 0 0 0 0-283.9052047132455z m0 94.63506823774853a47.31753411887426 47.31753411887426 0 1 1 0 94.63506823774853 47.31753411887426 47.31753411887426 0 0 1 0-94.63506823774853z"  horiz-adv-x="1024" />

    
    <glyph glyph-name="notice" unicode="&#58922;" d="M577.9635997765054 813.8058641425305c141.6864419371404-34.95582857187345 225.34975659463387-161.95904696109858 225.34975659463387-329.41875840059276v-185.29250549919567l113.9169641335298-153.97421375607115c10.557724820894373-11.62237003377637 16.590710432834015-26.749193298897644 16.590710432834015-42.63014123840825 0-36.064833020027606-29.94312746464676-64.0117521834175-65.4312786429612-64.0117521834175h-201.66141533697822c-18.71999938570114-73.68227315120916-88.72037647288924-127.75734306361447-171.14160603061833-127.7573415907176-82.46559026589814 0-152.42160664491718 54.075069912405326-171.14160750351525 127.7573415907176H137.37821021802898c-13.840378930084693 0-27.370235848779853 4.302938613903276-38.637724635894514 12.376493235268828-29.055923611544056 20.80492763039921-35.488151178314446 60.77345730949934-14.328340828356652 89.25269760643334l103.4035985479076 160.140280019621v184.09478258049722c0 167.50407067476627 83.70767536566254 294.50729053688826 225.34975659463387 329.46311763586493a98.03601619401918 98.03601619401918 0 0 0 82.42123103062598 44.00530698978291 98.03601619401918 98.03601619401918 0 0 0 82.37686884956004-44.00530698978291z m-6.9201894650423466-775.3273710776854h-150.9133602419323c15.038103321680067-23.156018651214662 42.94066177690091-39.03696511782838 75.41232014924555-39.03696511782838 32.56037831578583 0 60.462936771006675 15.880947939510605 75.50104009268674 39.03696511782838z m143.54956958678704 231.3827422065735v214.525870470519c0 152.11108610642452-81.09042451452345 250.32454218732613-219.00624897130467 250.324543660223-137.9601851649503 0-219.05060967947375-98.21345755379849-219.05061115237064-250.324543660223v-210.26729256478475L181.69403774630456 127.15451030246231h638.4318296527201l-105.53288750077472 142.66236426078743z"  horiz-adv-x="1024" />

    
    <glyph glyph-name="robot" unicode="&#58923;" d="M334.55924705422154 605.800941182223a44.36018823644462 44.36018823644462 0 0 1-44.36018823644462-44.36018823644462v-221.80094118222308a44.36018823644462 44.36018823644462 0 0 1 44.36018823644462-44.36018823644462h354.88150589155697a44.36018823644462 44.36018823644462 0 0 1 44.36018823644462 44.36018823644462v221.80094118222308a44.36018823644462 44.36018823644462 0 0 1-44.36018823644462 44.36018823644462h-354.88150589155697z m352.6634969952486 88.72037647288924H689.4407529457784a133.08056470933383 133.08056470933383 0 0 0 133.08056470933383-133.08056470933383v-221.80094118222308a133.08056470933383 133.08056470933383 0 0 0-133.08056470933383-133.08056470933383h-44.537628123327025v-55.805116910441704h87.7888119116175a44.36018823644462 44.36018823644462 0 0 0 44.36018823644462-44.36018823644462v-144.5698540915a44.36018823644462 44.36018823644462 0 0 0-44.36018823644462-44.36018823644462H290.199058817777a44.36018823644462 44.36018823644462 0 0 0-44.36018823644462 44.36018823644462v147.85250820069027a44.36018823644462 44.36018823644462 0 0 0 44.36018823644462 44.36018823644462h89.2083383711612V206.5592470542216H334.55924705422154a133.08056470933383 133.08056470933383 0 0 0-133.08056470933383 133.08056470933383v221.80094118222308a133.08056470933383 133.08056470933383 0 0 0 133.08056470933383 133.08056470933383h2.2180088963083238a110.90047132755997 110.90047132755997 0 0 0 108.68246095835477 133.0805661822307h133.0805661822307a110.90047132755997 110.90047132755997 0 0 0 108.68246095835477-133.0805661822307z m-219.0949703876428-584.8447216385867a44.36018823644462 44.36018823644462 0 0 0-44.36018823644462-44.36018823644462H334.55924705422154v-59.13213172780105h353.7725014434028v55.84947761861074h-87.7888119116175a44.36018823644462 44.36018823644462 0 0 0-44.3601897093415 44.36018823644462v99.94350455183485l-88.054973214838-0.4436026629997914v-96.26160848781382zM445.4597169088847 738.8815058915569a22.18009485467075 22.18009485467075 0 1 1 0-44.36018823644462h133.0805661822307a22.18009485467075 22.18009485467075 0 1 1 0 44.36018823644462h-133.0805661822307zM157.1184941084431 561.4407529457785a44.36018823644462 44.36018823644462 0 0 0 44.36018823644462-44.36018823644462v-88.72037647288924a44.36018823644462 44.36018823644462 0 0 0-88.7203779457861 0v88.72037647288924a44.36018823644462 44.36018823644462 0 0 0 44.3601897093415 44.36018823644462z m709.7630117831139 0a44.36018823644462 44.36018823644462 0 0 0 44.3601897093415-44.36018823644462v-88.72037647288924a44.36018823644462 44.36018823644462 0 0 0-88.7203779457861 0v88.72037647288924a44.36018823644462 44.36018823644462 0 0 0 44.36018823644462 44.36018823644462z m-487.9620706008908-155.03885749605627a44.36018823644462 44.36018823644462 0 1 1 0 88.72037647288924 44.36018823644462 44.36018823644462 0 0 1 0-88.72037647288924z m266.16112941866766 0a44.36018823644462 44.36018823644462 0 1 1 0 88.72037647288924 44.36018823644462 44.36018823644462 0 0 1 0-88.72037647288924z"  horiz-adv-x="1024" />

    
    <glyph glyph-name="search" unicode="&#58924;" d="M797.182778968704 165.20372180698894c1.5614780744702594-1.182938078031106 3.0283215426032317-2.5078288511131452 4.447848493112561-3.927355801622474l167.31480097112612-167.31480097112612a47.31753411887426 47.31753411887426 0 1 0-66.906993467183-66.906993467183l-167.31480097112612 167.31480097112612a47.79071029274069 47.79071029274069 0 0 0-3.927355801622474 4.447848493112561 425.8578086409583 425.8578086409583 0 1 0 66.38650077569291 66.38650077569291zM464.6824658811257 100.09479528675433a331.22273883211983 331.22273883211983 0 1 1 0 662.4454776642397 331.22273883211983 331.22273883211983 0 0 1 0-662.4454776642397z"  horiz-adv-x="1024" />

    
    <glyph glyph-name="Remote" unicode="&#58925;" d="M133.45972704900595 289.36493176225144v-236.58767059437128a47.31753411887426 47.31753411887426 0 0 1 47.31753411887426-47.31753411887426h662.4454776642397a47.31753411887426 47.31753411887426 0 0 1 47.31753411887426 47.31753411887426v236.58767059437128a47.31753411887426 47.31753411887426 0 0 1-47.31753411887426 47.31753411887426H180.77726116788023a47.31753411887426 47.31753411887426 0 0 1-47.31753411887426-47.31753411887426z m709.7630117831138 141.95260235662275a141.95260235662275 141.95260235662275 0 0 0 141.95260392771274-141.95260235662275v-236.58767059437128a141.95260235662275 141.95260235662275 0 0 0-141.95260392771274-141.95260392771274H180.77726116788023a141.95260235662275 141.95260235662275 0 0 0-141.95260392771274 141.95260392771274v236.58767059437128a141.95260235662275 141.95260235662275 0 0 0 141.95260392771274 141.95260235662275h662.4454776642397z m-94.63506823774853-310.11911949805443a47.31753411887426 47.31753411887426 0 1 0 0 94.63506823774853 47.31753411887426 47.31753411887426 0 0 0 0-94.63506823774853zM512 478.6350682377485a47.31753411887426 47.31753411887426 0 1 0 0 94.63506823774853 47.31753411887426 47.31753411887426 0 0 0 0-94.63506823774853z m199.9638988375806 154.25516245298027a47.31753411887426 47.31753411887426 0 0 0-66.67040459470475-67.19089885728485A188.46573839390507 188.46573839390507 0 0 1 512 620.5876705943713c-51.24488992049673 0-99.13023481957471-20.346539341187032-134.47643232090698-56.07127683895844a47.31753411887426 47.31753411887426 0 0 0-67.19089885728485 66.62308807708114A283.1008066316536 283.1008066316536 0 0 0 512 715.2227388321198c75.89732505974537 0 147.15753084261365-29.95199980266682 199.9638988375806-82.33250814139099z m131.21152347691552 89.0515981842285a47.31753411887426 47.31753411887426 0 1 0-66.24454808064196-67.569438853724A377.1207475715746 377.1207475715746 0 0 1 512 762.540272950994a377.07342948286106 377.07342948286106 0 0 1-264.031841545925-107.26884867074155 47.31753411887426 47.31753411887426 0 1 0-66.00795920816373 67.80602615511222A471.7084992916996 471.7084992916996 0 0 0 512 857.1753427598326a471.7084992916996 471.7084992916996 0 0 0 331.22273883211983-135.23351388487526z"  horiz-adv-x="1024" />

    
    <glyph glyph-name="shelf" unicode="&#58926;" d="M835.0210329181818 599.3473552787876V814.6947105575755a53.836838819696936 53.836838819696936 0 0 0 107.67367763939387 0v-861.389421115151a53.836838819696936 53.836838819696936 0 0 0-107.67367763939387 0v107.67367763939387H188.97896708181844v-107.67367763939387a53.836838819696936 53.836838819696936 0 0 0-107.67367763939387 0V814.6947105575755a53.836838819696936 53.836838819696936 0 1 0 107.67367763939387 0v-215.34735527878775h646.0420658363631z m-646.0420658363631-215.34735527878775h646.0420658363631v107.67367763939387H188.97896708181844v-107.67367763939387z m646.0420658363631-107.67367763939387H188.97896708181844v-107.67367763939387h646.0420658363631v107.67367763939387z"  horiz-adv-x="1024" />

    
    <glyph glyph-name="submit" unicode="&#58927;" d="M414.63944190258155 187.15905689240253l-270.732004039059 270.732004039059a50.47203639346588 50.47203639346588 0 1 1-71.36745969832853-71.36745969832853l306.4157330503086-306.3652604223474a50.320620185411556 50.320620185411556 0 0 1 71.36745969832853 0l520.5685847732553 520.5181121452941a50.47203639346588 50.47203639346588 0 0 1-71.36745969832853 71.36745969832853l-484.8848540861764-484.8343831340446z"  horiz-adv-x="1024" />

    
    <glyph glyph-name="set" unicode="&#58928;" d="M474.14597207646466 713.9451661477515a47.31753411887426 47.31753411887426 0 0 0-35.488150196383195-45.80337256202764c-26.639771298871715-6.861042737888418-52.049288002088694-17.412852404921086-75.66073775835717-31.371525182086145a47.31753411887426 47.31753411887426 0 0 0-57.53812030709141 7.286899251951215l-7.570806213143082 7.570806213143082a37.85402792353541 37.85402792353541 0 1 1-53.5634479878453-53.468813381508006l7.618122730766724-7.618124301856729a47.31753411887426 47.31753411887426 0 0 0 7.286899251951215-57.53812030709141 291.3340582313377 291.3340582313377 0 0 1-31.371525182086145-75.6134196696435 47.31753411887426 47.31753411887426 0 0 0-45.80337256202764-35.53546828509683H171.31375340145138a37.85402792353541 37.85402792353541 0 1 1 0-75.70805584707082h10.741080450797249a47.31753411887426 47.31753411887426 0 0 0 45.80337256202764-35.488150196383195c6.861042737888418-26.639771298871715 17.412852404921086-52.049288002088694 31.371525182086145-75.66073775835717a47.31753411887426 47.31753411887426 0 0 0-7.286899251951215-57.53812030709141l-7.570806213143082-7.570806213143082a37.85402792353541 37.85402792353541 0 1 1 53.468813381508006-53.5634479878453l7.618124301856729 7.618122730766724a47.31753411887426 47.31753411887426 0 0 0 57.53812030709141 7.286899251951215 291.3340582313377 291.3340582313377 0 0 1 75.6134196696435-31.371525182086145 47.31753411887426 47.31753411887426 0 0 0 35.53546828509683-45.80337256202764v-10.741080450797249a37.85402792353541 37.85402792353541 0 1 1 75.70805584707082 0v10.741080450797249a47.31753411887426 47.31753411887426 0 0 0 35.488150196383195 45.80337256202764 291.3340582313377 291.3340582313377 0 0 1 75.66073775835717 31.371525182086145 47.31753411887426 47.31753411887426 0 0 0 57.53812030709141-7.286899251951215l7.570806213143082-7.570806213143082a37.85402792353541 37.85402792353541 0 1 1 53.5634479878453 53.468813381508006l-7.618122730766724 7.618124301856729a47.31753411887426 47.31753411887426 0 0 0-7.286899251951215 57.53812030709141 291.3340582313377 291.3340582313377 0 0 1 31.371525182086145 75.6134196696435 47.31753411887426 47.31753411887426 0 0 0 45.80337256202764 35.53546828509683h10.741080450797249a37.85402792353541 37.85402792353541 0 1 1 0 75.70805584707082h-10.741080450797249a47.31753411887426 47.31753411887426 0 0 0-45.80337256202764 35.488150196383195 291.3340582313377 291.3340582313377 0 0 1-31.371525182086145 75.66073775835717 47.31753411887426 47.31753411887426 0 0 0 7.286899251951215 57.53812030709141l7.570806213143082 7.570806213143082a37.85402792353541 37.85402792353541 0 1 1-53.468813381508006 53.5634479878453l-7.618124301856729-7.618122730766724a47.31753411887426 47.31753411887426 0 0 0-57.53812030709141-7.286899251951215 291.3340582313377 291.3340582313377 0 0 1-75.6134196696435 31.371525182086145 47.31753411887426 47.31753411887426 0 0 0-35.53546828509683 45.80337256202764V724.6862465985487a37.85402792353541 37.85402792353541 0 1 1-75.70805584707082 0v-10.741080450797249zM512 857.1753427598326a132.48909616128392 132.48909616128392 0 0 0 130.12321843413167-107.5527556319334c12.397194702694796-4.400530404398914 24.51048244419773-9.463506195338848 36.38718445540244-15.046976248858877a132.48909616128392 132.48909616128392 0 0 0 184.06520798950615-184.06520798950615c5.630786571143665-11.829383922491067 10.646445844459961-23.98998975270764 15.046976248858877-36.38718445540244a132.48909616128392 132.48909616128392 0 0 0 0-260.24643686826334c-4.400530404398914-12.397194702694796-9.463506195338848-24.51048244419773-15.046976248858877-36.38718445540244a132.48909616128392 132.48909616128392 0 0 0-184.06520798950615-184.06520798950615c-11.829383922491067-5.630786571143665-23.98998975270764-10.646445844459961-36.38718445540244-15.046976248858877a132.48909616128392 132.48909616128392 0 0 0-260.24643686826334 0 385.82717377403526 385.82717377403526 0 0 0-36.38718445540244 15.046976248858877 132.48909616128392 132.48909616128392 0 0 0-184.06520798950615 184.06520798950615 385.82717377403526 385.82717377403526 0 0 0-15.046976248858877 36.38718445540244 132.48909616128392 132.48909616128392 0 0 0 0 260.24643686826334c4.400530404398914 12.397194702694796 9.463506195338848 24.51048244419773 15.046976248858877 36.38718445540244a132.48909616128392 132.48909616128392 0 0 0 184.06520798950615 184.06520798950615c11.829383922491067 5.630786571143665 23.98998975270764 10.646445844459961 36.38718445540244 15.046976248858877A132.48909616128392 132.48909616128392 0 0 0 512 857.1753427598326z m0-662.4454792353298a189.27013647549705 189.27013647549705 0 1 1 0 378.5402729509941 189.27013647549705 189.27013647549705 0 0 1 0-378.5402729509941z m0 94.63506823774853a94.63506823774853 94.63506823774853 0 1 0 0 189.27013647549705 94.63506823774853 94.63506823774853 0 0 0 0-189.27013647549705z"  horiz-adv-x="1024" />

    
    <glyph glyph-name="ticket" unicode="&#58929;" d="M197.1757437309845-66.6107932458267A88.72037647288924 88.72037647288924 0 0 0 68.39811616265695 12.572142910881212V694.5213176551123a133.08056470933383 133.08056470933383 0 0 0 133.0805661822307 133.0805661822307h621.0426353102247a133.08056470933383 133.08056470933383 0 0 0 133.0805661822307-133.0805661822307v-682.7032979457234a88.72037647288924 88.72037647288924 0 0 0-128.023504366835-79.58217811153855l-74.21459428475329 36.64151633463765-57.002842774933946-44.53762959622391a88.72037647288924 88.72037647288924 0 0 0-100.65326704515824-5.9886249037706l-83.397153354273 50.570613735266676-80.38066202120007-50.26009319677401a88.72037647288924 88.72037647288924 0 0 0-99.18938135034239 3.460095468969613l-64.76587391201308 47.06615903102489-70.7988609968496-35.79867171680711zM201.47868234488772 738.8815058915569a44.36018823644462 44.36018823644462 0 0 1-44.36018823644462-44.36018823644462v-681.9491747442311l94.93080197171128 48.04208430046569a44.36018823644462 44.36018823644462 0 0 0 46.13459594265002-3.7262552992932347l86.72416817163239-62.991467678704545 80.42502125647223 50.26009319677401a88.72037647288924 88.72037647288924 0 0 0 93.0233150867925 0.6210425498822059l83.39715482716989-50.570615208163545 78.91677485348733 61.74938257894013a44.36018823644462 44.36018823644462 0 0 0 46.97743908758369 4.835261220344274L866.8815058915568 11.773660474116468V694.5213176551123a44.36018823644462 44.36018823644462 0 0 1-44.36018823644462 44.36018823644462H201.47868234488772z m88.72037647288924-177.44075294577848h443.60188236444617a44.36018823644462 44.36018823644462 0 0 0 0-88.72037647288924H290.199058817777a44.36018823644462 44.36018823644462 0 0 0 0 88.72037647288924z m0-266.16112941866766h443.60188236444617a44.36018823644462 44.36018823644462 0 0 0 0-88.72037647288924H290.199058817777a44.36018823644462 44.36018823644462 0 0 0 0 88.72037647288924z"  horiz-adv-x="1024" />

    
    <glyph glyph-name="station" unicode="&#58930;" d="M133.45972704900595 809.8578086409582h757.0805459019882a94.63506823774853 94.63506823774853 0 0 0 94.63506980883851-94.63506980883851v-520.4928753076168a94.63506823774853 94.63506823774853 0 0 0-94.63506980883851-94.63506823774853H133.45972704900595a94.63506823774853 94.63506823774853 0 0 0-94.63506980883851 94.63506823774853V715.2227388321198a94.63506823774853 94.63506823774853 0 0 0 94.63506980883851 94.63506980883851z m47.222897941446966-93.68871903219566a47.31753411887426 47.31753411887426 0 0 1-47.31753411887426-47.31753411887426v-429.4539393926752a47.31753411887426 47.31753411887426 0 0 1 47.31753411887426-47.31753411887426h666.893327728442a47.31753411887426 47.31753411887426 0 0 1 47.31753411887426 47.31753411887426V668.8515554898885a47.31753411887426 47.31753411887426 0 0 1-47.31753411887426 47.31753411887426H180.682624990453zM467.90005820749366 100.09479528675433h90.42380704602418v-94.82433902151311h-90.47112513473782V100.09479528675433z m-234.55301791712458-94.82433902151311H790.7002762272546a46.65508873233324 46.65508873233324 0 0 0 0-93.35749555338013H233.2997237727452a46.65508873233324 46.65508873233324 0 1 0 0 93.35749555338013zM299.0237791618972 504.5650776324555a47.31753411887426 47.31753411887426 0 1 0 0 94.63506823774853 47.31753411887426 47.31753411887426 0 0 0 0-94.63506823774853z m0-189.27013804658702a47.31753411887426 47.31753411887426 0 1 0 0 94.63506980883851 47.31753411887426 47.31753411887426 0 0 0 0-94.63506980883851z m141.95260235662275 189.27013804658702a47.31753411887426 47.31753411887426 0 1 0 0 94.63506823774853 47.31753411887426 47.31753411887426 0 0 0 0-94.63506823774853z m0-189.27013804658702a47.31753411887426 47.31753411887426 0 1 0 0 94.63506980883851 47.31753411887426 47.31753411887426 0 0 0 0-94.63506980883851z m141.95260235662275 189.27013804658702a47.31753411887426 47.31753411887426 0 1 0 0 94.63506823774853 47.31753411887426 47.31753411887426 0 0 0 0-94.63506823774853z m0-189.27013804658702a47.31753411887426 47.31753411887426 0 1 0 0 94.63506980883851 47.31753411887426 47.31753411887426 0 0 0 0-94.63506980883851z m141.95260235662275 189.27013804658702a47.31753411887426 47.31753411887426 0 1 0 0 94.63506823774853 47.31753411887426 47.31753411887426 0 0 0 0-94.63506823774853z m0-189.27013804658702a47.31753411887426 47.31753411887426 0 1 0 0 94.63506980883851 47.31753411887426 47.31753411887426 0 0 0 0-94.63506980883851z"  horiz-adv-x="1024" />

    
    <glyph glyph-name="upgrade" unicode="&#58931;" d="M464.6824658811257 480.1492297945951l-119.99726685225184-119.99726685225184a47.31753411887426 47.31753411887426 0 0 0-66.906993467183 66.906993467183l200.7682984902626 200.7682969191726a47.17558142382333 47.17558142382333 0 0 0 66.90699189609296 0l200.7682984902626-200.7682969191726a47.31753411887426 47.31753411887426 0 1 0-66.906993467183-66.906993467183L559.3175341188742 480.1492297945951V147.4123294056286a47.31753411887426 47.31753411887426 0 0 0-94.63506823774853 0v332.73690038896643zM180.77726116788023 857.1753427598326h662.4454776642397a141.95260235662275 141.95260235662275 0 0 0 141.95260392771274-141.95260392771274v-662.4454776642397a141.95260235662275 141.95260235662275 0 0 0-141.95260392771274-141.95260392771274H180.77726116788023a141.95260235662275 141.95260235662275 0 0 0-141.95260392771274 141.95260392771274V715.2227388321198a141.95260235662275 141.95260235662275 0 0 0 141.95260392771274 141.95260392771274z m0-94.63506980883851a47.31753411887426 47.31753411887426 0 0 1-47.31753411887426-47.31753411887426v-662.4454776642397a47.31753411887426 47.31753411887426 0 0 1 47.31753411887426-47.31753411887426h662.4454776642397a47.31753411887426 47.31753411887426 0 0 1 47.31753411887426 47.31753411887426V715.2227388321198a47.31753411887426 47.31753411887426 0 0 1-47.31753411887426 47.31753411887426H180.77726116788023z"  horiz-adv-x="1024" />

    
    <glyph glyph-name="user" unicode="&#58932;" d="M512 266.34968342993625c-160.24871517219256 0-297.43171085045924-104.57806010440628-341.59474248526317-250.03846957021187h683.1894849705263c-44.16303163480397 145.4604094658056-181.34602731307072 250.03846957021187-341.59474248526317 250.03846957021187z m0 100.94407278693176c231.16192792218743 0 425.4287954928613-170.29265082842213 453.84455154499113-395.14557399194763A50.47203639346588 50.47203639346588 0 0 0 915.7762911477269-84.63285892720717H108.22370885227303a50.47203639346588 50.47203639346588 0 0 0-50.06826039726411 56.78104115212777C86.52073187917762 197.00110538844604 280.8380720778125 367.34422716899996 512 367.34422716899996z m3.1292660653503397 0c112.75453031185204 0 203.9070272307017 89.84022535015124 203.9070272307017 200.22256896109516 0 110.43281623890523-91.15249859467897 200.27304158905645-203.9070272307017 200.27303991322708-112.70405768389082 0-203.85655460274043-89.84022535015124-203.85655460274043-200.27303991322708 0-110.43281623890523 91.15249859467897-200.22256896109516 203.9070272307017-200.22256896109516z m0-100.94407278693176c-168.17282559149083 0-304.8006290655015 134.65939276930442-304.8006273896722 301.1666417480269 0 166.55771993085446 136.62780347401068 301.2171143759882 304.8511000176333 301.21711270015885 168.12235296352964 0 304.7501564375402-134.70986539726562 304.7501564375402-301.21711270015885s-136.62780347401068-301.1666417480269-304.8006290655015-301.1666417480269z"  horiz-adv-x="1024" />

    
    <glyph glyph-name="voice" unicode="&#58933;" d="M512 787.2873442676699a94.63506823774853 94.63506823774853 0 0 1-94.63506823774853-94.63506823774853v-283.9052062843356a94.63506823774853 94.63506823774853 0 1 1 189.27013647549705 0v283.9052062843356a94.63506823774853 94.63506823774853 0 0 1-94.63506823774853 94.63506823774853z m47.31753411887426-731.1505380783713V5.4597270490060055h189.27013647549705a47.31753411887426 47.31753411887426 0 0 0 0-94.63506980883851H275.41232940562884a47.31753411887426 47.31753411887426 0 0 0 0 94.63506980883851h189.27013647549705v50.629761051579344A331.31737500954716 331.31737500954716 0 0 0 180.77726116788023 384a47.31753411887426 47.31753411887426 0 0 0 94.63506823774853 0 236.58767059437128 236.58767059437128 0 0 1 473.17534118874255 0 47.31753411887426 47.31753411887426 0 0 0 94.63506823774853 0 331.31737500954716 331.31737500954716 0 0 0-283.9052047132455-327.9105118994147zM512 881.9224125054186a189.27013647549705 189.27013647549705 0 0 0 189.27013647549705-189.27013647549705v-283.9052062843356a189.27013647549705 189.27013647549705 0 1 0-378.5402729509941 0v283.9052062843356a189.27013647549705 189.27013647549705 0 0 0 189.27013647549705 189.27013647549705z"  horiz-adv-x="1024" />

    
    <glyph glyph-name="top" unicode="&#58934;" d="M512 535.7694142244675l383.08275667888006-383.08275667888a41.68990135380284 41.68990135380284 0 1 1 58.95133901702023 58.90086638905905l-412.5584261873901 412.55842618738984a41.538486821577834 41.538486821577834 0 0 1-58.95133901702024-1.1907483615302546e-14l-412.55842618738984-412.5584261873901a41.68990135380284 41.68990135380284 0 0 1 58.951339017020274-58.95133901702023L511.99999999999994 535.7189415965063z"  horiz-adv-x="1024" />

    
    <glyph glyph-name="bottom" unicode="&#58935;" d="M512 232.23058577553252l-383.0827566788801 383.0827566788796a41.68990135380284 41.68990135380284 0 1 1-58.95133901702022-58.90086638905908l412.5584261873902-412.55842618738967a41.538486821577834 41.538486821577834 0 0 1 58.951339017020224 3.572245084590764e-14l412.55842618738967 412.5584261873902a41.68990135380284 41.68990135380284 0 0 1-58.95133901702027 58.951339017020224L512.0000000000001 232.2810584034936z"  horiz-adv-x="1024" />

    
    <glyph glyph-name="scene" unicode="&#58936;" d="M184.7272730468751 424.9090913085937v-409.0909095703124h654.5454539062498V424.9090913085937H184.7272730468751z m0 81.81818173828123h654.5454539062498a81.81818173828123 81.81818173828123 0 0 0 81.81818173828123-81.81818173828123v-409.0909095703124a81.81818173828123 81.81818173828123 0 0 0-81.81818173828123-81.81818173828123H184.7272730468751a81.81818173828123 81.81818173828123 0 0 0-81.81818173828123 81.81818173828123V424.9090913085937a81.81818173828123 81.81818173828123 0 0 0 81.81818173828123 81.81818173828123z m-11.04545478515625 198.9L821.8454547851563 796.772726953125a81.81818173828123 81.81818173828123 0 0 0 92.45454521484373-69.62727216796875l5.64545478515625-40.499999999999986a81.81818173828123 81.81818173828123 0 0 0-69.62727304687499-92.45454609374998L202.15454521484378 503.1272730468751a81.81818173828123 81.81818173828123 0 0 0-92.45454521484373 69.62727216796875l-5.64545478515625 40.499999999999986a81.81818173828123 81.81818173828123 0 0 0 69.62727304687499 92.45454609374998z m11.372726953125-80.99999999999997l5.727273046874998-40.499999999999986 648.1636365234375 91.06363564453125-5.727273046874998 40.499999999999986L185.09545478515633 624.6681817382813zM102.9090913085937 343.0909086914064h777.272726953125v-81.81818173828123H102.9090913085937v81.81818173828123z m245.45454521484376 163.63636435546874h81.81818173828123l-81.81818173828123-245.45454609374997H266.54545478515627l81.81818173828123 245.45454609374997z m286.3636365234374 0h81.81818173828123l-81.81818173828123-245.45454609374997h-81.81818173828123l81.81818173828123 245.45454609374997z"  horiz-adv-x="1024" />

    


  </font>
</defs>
</svg>
